<svg width="70" height="70" viewBox="0 0 70 70" fill="none" xmlns="http://www.w3.org/2000/svg">
<rect width="70" height="70" rx="35" fill="#14D93F" fill-opacity="0.83"/>
<path fill-rule="evenodd" clip-rule="evenodd" d="M33.7642 11C28.6491 11 24.2687 14.1685 22.5036 18.619C18.8111 19.1067 15.5118 21.2363 13.6133 24.4892C11.0564 28.8688 11.639 34.2021 14.6526 37.9387C13.2347 41.3436 13.4486 45.2345 15.3454 48.4856C17.9034 52.867 22.8712 55.0347 27.6526 54.3197C29.9258 57.2373 33.4387 59 37.2357 59C42.3509 59 46.7313 55.8315 48.4963 51.381C52.1889 50.8933 55.4882 48.7637 57.3867 45.5108C59.9436 41.1312 59.361 35.7979 56.3474 32.0613C57.7653 28.6564 57.5514 24.7655 55.6546 21.5144C53.0966 17.133 48.1288 14.9653 43.3474 15.6803C41.0742 12.7627 37.5613 11 33.7643 11M33.7643 14.6923C35.9228 14.6923 37.9471 15.5317 39.4784 16.9567C39.3615 17.0185 39.2404 17.0674 39.1248 17.1334L30.836 21.8678C29.9735 22.3588 29.4395 23.269 29.4357 24.2548L29.3847 35.2704L25.399 32.97V22.9639C25.399 18.4039 29.1526 14.6923 33.7642 14.6923M45.7541 19.2465C48.4338 19.435 50.9789 20.8926 52.4201 23.3607C53.4992 25.2085 53.7773 27.3622 53.2952 29.3859C53.1812 29.3157 53.0769 29.2364 52.9597 29.1696L44.6675 24.4351C44.2433 24.1937 43.7625 24.0663 43.2731 24.0657C42.7837 24.0651 42.3027 24.1912 41.8778 24.4315L32.2071 29.8979L32.229 25.3366L40.9917 20.3318C42.4893 19.4768 44.1463 19.1334 45.7542 19.2464M21.6832 22.5709C21.6789 22.7023 21.665 22.8315 21.665 22.9639V32.4291C21.6649 32.9135 21.7931 33.3895 22.0369 33.8095C22.2807 34.2296 22.6315 34.5792 23.0544 34.8233L32.6776 40.3726L28.6737 42.6334L19.9073 37.6322C15.9137 35.3522 14.5421 30.2806 16.8479 26.3317C17.9264 24.4849 19.6713 23.1704 21.6832 22.5709ZM42.3264 27.3666L51.0928 32.3678C55.0864 34.6478 56.4581 39.7194 54.1522 43.6683C53.0738 45.5151 51.3288 46.8296 49.3169 47.4291C49.3212 47.2977 49.3351 47.1685 49.3351 47.0361V37.5709C49.3352 37.0865 49.207 36.6105 48.9632 36.1904C48.7195 35.7704 48.3686 35.4208 47.9457 35.1767L38.3225 29.6274L42.3264 27.3666ZM35.5183 31.2104L38.8257 33.1178L38.8075 36.9111L35.4817 38.7897L32.1743 36.8787L32.1925 33.089L35.5183 31.2104ZM41.6153 34.7296L45.601 37.0301V47.0361C45.601 51.5961 41.8474 55.3077 37.2358 55.3077C35.0772 55.3077 33.053 54.4684 31.5216 53.0433C31.6385 52.9815 31.7596 52.9327 31.8753 52.8666L40.164 48.1323C41.0265 47.6412 41.5605 46.7311 41.5643 45.7453L41.6153 34.7296ZM38.7928 40.1022L38.771 44.6635L30.0083 49.6683C26.0147 51.9483 20.8857 50.5884 18.5799 46.6395C17.5008 44.7916 17.2227 42.6379 17.7048 40.6143C17.8188 40.6844 17.9232 40.7637 18.0403 40.8306L26.3326 45.565C26.7568 45.8064 27.2375 45.9338 27.7269 45.9344C28.2163 45.935 28.6973 45.8089 29.1222 45.5686L38.7928 40.1022Z" fill="white"/>
</svg>
