<svg width="52" height="52" viewBox="0 0 52 52" fill="none" xmlns="http://www.w3.org/2000/svg">
<g clip-path="url(#clip0_14_221)">
<path fill-rule="evenodd" clip-rule="evenodd" d="M38.9805 13.0215L11.6978 22.8863L20.787 28.147L28.8015 20.1303C29.2081 19.724 29.7594 19.4959 30.3341 19.4961C30.9089 19.4963 31.46 19.7248 31.8663 20.1314C32.2725 20.5379 32.5006 21.0892 32.5004 21.664C32.5002 22.2387 32.2717 22.7899 31.8652 23.1961L23.8485 31.2128L29.1135 40.2998L38.9805 13.0215ZM39.6803 8.15946C42.2695 7.22129 44.7785 9.73029 43.8403 12.3195L32.396 43.9636C31.4557 46.5593 27.911 46.8756 26.5265 44.4858L19.5563 32.4435L7.514 25.4733C5.12417 24.0888 5.4405 20.5441 8.03617 19.6038L39.6803 8.15946Z" fill="#FFA800"/>
</g>
<defs>
<clipPath id="clip0_14_221">
<rect width="52" height="52" fill="white"/>
</clipPath>
</defs>
</svg>
