<svg width="284" height="75" viewBox="0 0 284 75" fill="none" xmlns="http://www.w3.org/2000/svg">
<path d="M44.2853 56.4815C38.5772 51.2997 26.1655 54.1073 16.5388 61.16C9.76742 66.1208 2.03226 64.5941 7.78527 58.4815C21.3104 44.111 42.2853 47.9815 64.7853 56.4815C87.2853 64.9815 129.285 47.9815 187.785 57.4815C194.222 58.5268 219.422 58.0199 224.285 57.4815C270.545 52.3595 269.094 41.6497 276.785 28.9815C280.447 22.9504 282.393 9.22843 283.566 16.1859C284.514 21.8055 283.833 28.9407 280.785 37.9815C259.248 101.875 153.285 63.4815 103.285 63.4815C53.2853 63.4815 53.6582 64.9902 44.2853 56.4815Z" fill="#269560"/>
<path d="M39.2853 53.4815C33.5772 48.2997 21.1655 51.1073 11.5388 58.16C4.76742 63.1208 -2.96774 61.5941 2.78527 55.4815C16.3104 41.111 37.2853 44.9815 59.7853 53.4815C82.2853 61.9815 124.285 44.9815 182.785 54.4815C189.222 55.5268 214.422 55.0199 219.285 54.4815C265.545 49.3595 264.094 38.6497 271.785 25.9815C275.447 19.9504 277.393 6.22843 278.566 13.1859C279.514 18.8055 278.833 25.9407 275.785 34.9815C254.248 98.8752 148.285 60.4815 98.2853 60.4815C48.2853 60.4815 48.6582 61.9902 39.2853 53.4815Z" fill="#53DF3C"/>
<path d="M37.3281 2.15625C39.3281 2.125 40.9688 2.48438 42.25 3.23438C43.5625 3.98438 44.625 4.875 45.4375 5.90625C46.25 6.9375 46.875 7.98438 47.3125 9.04688C47.75 10.0781 48.0938 10.8906 48.3438 11.4844C48.4062 11.6406 48.5312 11.8438 48.7188 12.0938C48.875 12.3125 49.0938 12.5781 49.375 12.8906C49.6875 13.1719 50.0781 13.5 50.5469 13.875C49.5781 13.9062 48.7188 13.9375 47.9688 13.9688C47.2188 13.9688 46.5781 13.9844 46.0469 14.0156C45.4531 14.0469 44.9219 14.0781 44.4531 14.1094C43.9844 14.1406 43.4062 14.1875 42.7188 14.25C42.0938 14.3125 41.3281 14.375 40.4219 14.4375C39.5156 14.5 38.4062 14.5938 37.0938 14.7188C37.875 13.7812 38.4844 12.9531 38.9219 12.2344C39.3906 11.4844 39.7344 10.8281 39.9531 10.2656C40.2031 9.67188 40.3438 9.15625 40.375 8.71875C40.4375 8.28125 40.4219 7.90625 40.3281 7.59375C40.1406 6.875 39.6562 6.35938 38.875 6.04688C36.625 5.42187 34.6562 5.92188 32.9688 7.54688C31.3125 9.14062 30.125 11.7656 29.4062 15.4219C29.0625 17.2344 28.7344 19.125 28.4219 21.0938C28.1406 23.0312 28.0312 24.8125 28.0938 26.4375C28.1562 28.0312 28.4688 29.3281 29.0312 30.3281C29.5938 31.3281 30.5625 31.7969 31.9375 31.7344C33.2812 31.6719 34.4219 31.4531 35.3594 31.0781C36.2969 30.6719 37.0469 30.2031 37.6094 29.6719C38.1719 29.1094 38.5625 28.5156 38.7812 27.8906C39.0312 27.2344 39.125 26.625 39.0625 26.0625C38.9375 25.625 38.6094 25.1562 38.0781 24.6562C37.6094 24.2188 36.9062 23.7344 35.9688 23.2031C35.0312 22.6406 33.6875 22.0625 31.9375 21.4688C33.5938 21.375 34.9531 21.3125 36.0156 21.2812C37.1094 21.2188 37.9688 21.1562 38.5938 21.0938C39.3438 21.0312 39.9219 20.9844 40.3281 20.9531C40.7031 20.9219 41.25 20.8906 41.9688 20.8594C42.5938 20.8281 43.3906 20.8125 44.3594 20.8125C45.3594 20.8125 46.6094 20.7969 48.1094 20.7656C47.5469 21.3281 47.1094 21.8438 46.7969 22.3125C46.6406 22.5625 46.5 22.7812 46.375 22.9688C46.25 23.2812 46.2031 23.9219 46.2344 24.8906C46.2344 25.7031 46.2969 26.9062 46.4219 28.5C46.5469 30.0625 46.7812 32.2031 47.125 34.9219L40.8906 35.7656L41.1719 29.4375C40.4531 31.1562 39.5469 32.4375 38.4531 33.2812C37.3906 34.125 36.375 34.7188 35.4062 35.0625C34.25 35.4688 33.0469 35.6562 31.7969 35.625C30.1719 35.4688 28.5469 35.0938 26.9219 34.5C25.2969 33.9062 23.8594 33 22.6094 31.7812C21.3594 30.5312 20.3906 28.9219 19.7031 26.9531C19.0469 24.9844 18.8438 22.5469 19.0938 19.6406C19.375 16.7344 20.0625 14.2031 21.1562 12.0469C22.2812 9.85938 23.6719 8.04688 25.3281 6.60938C26.9844 5.17188 28.8438 4.09375 30.9062 3.375C33 2.625 35.1406 2.21875 37.3281 2.15625ZM61.7969 28.4531C62.6719 28.4531 63.4844 28.3594 64.2344 28.1719C64.8594 28.0156 65.4531 27.7656 66.0156 27.4219C66.6094 27.0469 67 26.5 67.1875 25.7812C67.8125 25.9062 68.3438 26.0156 68.7812 26.1094C69.2188 26.1719 69.5938 26.2344 69.9062 26.2969C70.25 26.3906 70.5469 26.4531 70.7969 26.4844C71.0469 26.5469 71.3438 26.6094 71.6875 26.6719C72 26.7344 72.375 26.8125 72.8125 26.9062C73.2812 26.9688 73.8281 27.0625 74.4531 27.1875C73.9844 27.125 73.5 27.1719 73 27.3281C72.5312 27.4844 72.0781 27.6562 71.6406 27.8438C71.1406 28.0625 70.6719 28.3281 70.2344 28.6406C69.9531 28.8281 69.625 29.1094 69.25 29.4844C68.9062 29.8594 68.4062 30.2188 67.75 30.5625C67.0938 30.9062 66.2188 31.2031 65.125 31.4531C64.0625 31.6719 62.6875 31.75 61 31.6875C58.9688 31.625 57.2656 31.2656 55.8906 30.6094C54.5156 29.9219 53.4062 29.0938 52.5625 28.125C51.7188 27.125 51.1094 26.0469 50.7344 24.8906C50.3594 23.7344 50.1562 22.6562 50.125 21.6562C50.0938 20.6562 50.3906 19.6094 51.0156 18.5156C51.6406 17.4219 52.5156 16.4219 53.6406 15.5156C54.7969 14.6094 56.1875 13.875 57.8125 13.3125C59.4375 12.7188 61.2188 12.4219 63.1562 12.4219C64.2812 12.4219 65.3125 12.5625 66.25 12.8438C67.2188 13.0938 68.0938 13.4375 68.875 13.875C69.6875 14.3125 70.3906 14.8125 70.9844 15.375C71.5781 15.9062 72.0781 16.4531 72.4844 17.0156C72.8906 17.6094 73.2344 18.2344 73.5156 18.8906C73.7656 19.4531 73.9688 20.0938 74.125 20.8125C74.2812 21.5312 74.3281 22.2656 74.2656 23.0156C71.8906 23.0781 69.9688 23.125 68.5 23.1562C67.0625 23.1875 65.9375 23.2031 65.125 23.2031H63.0156H61.4219C60.8594 23.2031 60.125 23.2188 59.2188 23.25C58.3125 23.2812 57.2031 23.3281 55.8906 23.3906C56.0469 24.6406 56.4375 25.6094 57.0625 26.2969C57.7188 26.9531 58.4062 27.4531 59.125 27.7969C59.9375 28.1719 60.8281 28.3906 61.7969 28.4531ZM57.5781 20.0156C58.5781 20.0781 59.4062 20.125 60.0625 20.1562C60.75 20.1875 61.3125 20.2188 61.75 20.25C62.2188 20.2812 62.5938 20.2969 62.875 20.2969H64.0469C64.8281 20.2969 66.2812 20.25 68.4062 20.1562C68.3125 18.7812 68.0156 17.7344 67.5156 17.0156C67.0469 16.2969 66.5469 15.7656 66.0156 15.4219C65.3906 15.0469 64.7031 14.8281 63.9531 14.7656C61.9219 14.7969 60.4062 15.2188 59.4062 16.0312C58.4375 16.8438 57.8281 18.1719 57.5781 20.0156ZM77.5938 30.8438C77.8125 29.8125 77.9688 28.9062 78.0625 28.125C78.1875 27.3125 78.2812 26.6406 78.3438 26.1094C78.4062 25.4844 78.4375 24.9531 78.4375 24.5156C78.4062 23.9844 78.375 23.3594 78.3438 22.6406C78.3438 21.8906 78.3125 21.1562 78.25 20.4375C78.2188 19.6875 78.1719 19.0312 78.1094 18.4688C78.0469 17.875 77.9688 17.4531 77.875 17.2031C77.75 16.9531 77.5781 16.6875 77.3594 16.4062C76.9219 15.875 76.2812 15.3594 75.4375 14.8594C76.1562 14.7031 76.7656 14.5781 77.2656 14.4844C77.7969 14.3594 78.2344 14.25 78.5781 14.1562C78.9531 14.0312 79.2812 13.9219 79.5625 13.8281C79.8125 13.7344 80.1094 13.6406 80.4531 13.5469C80.7344 13.4844 81.0781 13.4062 81.4844 13.3125C81.8906 13.2188 82.3594 13.1094 82.8906 12.9844L82.75 17.25C83.75 16.0625 84.7656 15.1719 85.7969 14.5781C86.8281 13.9844 87.7969 13.5625 88.7031 13.3125C89.7344 13 90.75 12.8438 91.75 12.8438C93 12.9062 94.1562 13.1094 95.2188 13.4531C96.3125 13.7969 97.25 14.2031 98.0312 14.6719C98.8438 15.1094 99.5 15.5781 100 16.0781C100.5 16.5781 100.797 17.0156 100.891 17.3906C101.266 18.6094 101.359 19.7344 101.172 20.7656C100.984 21.7656 100.734 22.75 100.422 23.7188C100.141 24.6562 99.8906 25.5938 99.6719 26.5312C99.4844 27.4688 99.5625 28.4844 99.9062 29.5781C100.031 29.8594 100.156 30.1406 100.281 30.4219C100.406 30.6719 100.562 30.9219 100.75 31.1719C100.938 31.4219 101.156 31.625 101.406 31.7812C101.062 31.75 100.719 31.7344 100.375 31.7344C100.031 31.7031 99.7188 31.6719 99.4375 31.6406C99.0938 31.6094 98.7812 31.5781 98.5 31.5469C98.1875 31.5156 97.7656 31.5 97.2344 31.5C96.3281 31.5 94.9219 31.5469 93.0156 31.6406C93.2969 30.9844 93.5156 30.4375 93.6719 30C93.8594 29.5312 94.0156 29.1562 94.1406 28.875C94.2656 28.5312 94.3594 28.2656 94.4219 28.0781C94.7969 27.1719 95.0156 26.1406 95.0781 24.9844C95.1719 23.8281 95.0938 22.6562 94.8438 21.4688C94.75 21.0625 94.5938 20.5781 94.375 20.0156C94.1562 19.4531 93.8594 18.9062 93.4844 18.375C93.1406 17.8438 92.7188 17.3906 92.2188 17.0156C91.75 16.6406 91.2031 16.4219 90.5781 16.3594C89.9531 16.2969 89.25 16.4531 88.4688 16.8281C87.7188 17.2031 86.9062 17.8906 86.0312 18.8906C85.375 19.7344 84.8594 20.7656 84.4844 21.9844C84.1406 23.0156 83.9062 24.3125 83.7812 25.875C83.6562 27.4062 83.8438 29.2031 84.3438 31.2656C83.9062 31.2031 83.5 31.1719 83.125 31.1719C82.75 31.1406 82.4375 31.1094 82.1875 31.0781C81.875 31.0469 81.5938 31.0156 81.3438 30.9844C81.0625 30.9844 80.75 30.9688 80.4062 30.9375C80.0938 30.9375 79.7031 30.9375 79.2344 30.9375C78.7656 30.9062 78.2188 30.875 77.5938 30.8438ZM116.453 28.4531C117.328 28.4531 118.141 28.3594 118.891 28.1719C119.516 28.0156 120.109 27.7656 120.672 27.4219C121.266 27.0469 121.656 26.5 121.844 25.7812C122.469 25.9062 123 26.0156 123.438 26.1094C123.875 26.1719 124.25 26.2344 124.562 26.2969C124.906 26.3906 125.203 26.4531 125.453 26.4844C125.703 26.5469 126 26.6094 126.344 26.6719C126.656 26.7344 127.031 26.8125 127.469 26.9062C127.938 26.9688 128.484 27.0625 129.109 27.1875C128.641 27.125 128.156 27.1719 127.656 27.3281C127.188 27.4844 126.734 27.6562 126.297 27.8438C125.797 28.0625 125.328 28.3281 124.891 28.6406C124.609 28.8281 124.281 29.1094 123.906 29.4844C123.562 29.8594 123.062 30.2188 122.406 30.5625C121.75 30.9062 120.875 31.2031 119.781 31.4531C118.719 31.6719 117.344 31.75 115.656 31.6875C113.625 31.625 111.922 31.2656 110.547 30.6094C109.172 29.9219 108.062 29.0938 107.219 28.125C106.375 27.125 105.766 26.0469 105.391 24.8906C105.016 23.7344 104.812 22.6562 104.781 21.6562C104.75 20.6562 105.047 19.6094 105.672 18.5156C106.297 17.4219 107.172 16.4219 108.297 15.5156C109.453 14.6094 110.844 13.875 112.469 13.3125C114.094 12.7188 115.875 12.4219 117.812 12.4219C118.938 12.4219 119.969 12.5625 120.906 12.8438C121.875 13.0938 122.75 13.4375 123.531 13.875C124.344 14.3125 125.047 14.8125 125.641 15.375C126.234 15.9062 126.734 16.4531 127.141 17.0156C127.547 17.6094 127.891 18.2344 128.172 18.8906C128.422 19.4531 128.625 20.0938 128.781 20.8125C128.938 21.5312 128.984 22.2656 128.922 23.0156C126.547 23.0781 124.625 23.125 123.156 23.1562C121.719 23.1875 120.594 23.2031 119.781 23.2031H117.672H116.078C115.516 23.2031 114.781 23.2188 113.875 23.25C112.969 23.2812 111.859 23.3281 110.547 23.3906C110.703 24.6406 111.094 25.6094 111.719 26.2969C112.375 26.9531 113.062 27.4531 113.781 27.7969C114.594 28.1719 115.484 28.3906 116.453 28.4531ZM112.234 20.0156C113.234 20.0781 114.062 20.125 114.719 20.1562C115.406 20.1875 115.969 20.2188 116.406 20.25C116.875 20.2812 117.25 20.2969 117.531 20.2969H118.703C119.484 20.2969 120.938 20.25 123.062 20.1562C122.969 18.7812 122.672 17.7344 122.172 17.0156C121.703 16.2969 121.203 15.7656 120.672 15.4219C120.047 15.0469 119.359 14.8281 118.609 14.7656C116.578 14.7969 115.062 15.2188 114.062 16.0312C113.094 16.8438 112.484 18.1719 112.234 20.0156ZM130.328 13.5469C130.922 13.5781 131.453 13.5938 131.922 13.5938C132.422 13.5625 132.844 13.5312 133.188 13.5C133.594 13.4688 133.953 13.4375 134.266 13.4062C134.734 13.3438 135.219 13.2656 135.719 13.1719C136.156 13.1094 136.609 13.0312 137.078 12.9375C137.578 12.8125 138.062 12.6719 138.531 12.5156C138.344 12.9844 138.188 13.3906 138.062 13.7344C137.938 14.0781 137.844 14.375 137.781 14.625C137.688 14.9062 137.641 15.1406 137.641 15.3281C137.609 15.5469 137.594 15.8125 137.594 16.125C137.562 16.6562 137.562 17.5156 137.594 18.7031C139.219 17.2969 140.578 16.2031 141.672 15.4219C142.797 14.6406 143.688 14.0312 144.344 13.5938C145.125 13.0938 145.734 12.7656 146.172 12.6094C147.328 12.4219 148.344 12.6875 149.219 13.4062C149.594 13.7188 149.953 14.1406 150.297 14.6719C150.641 15.1719 150.938 15.8438 151.188 16.6875C151.438 17.5312 151.625 18.5469 151.75 19.7344C151.875 20.8906 151.891 22.2812 151.797 23.9062C151.141 23.9688 150.547 24.0312 150.016 24.0938C149.516 24.1562 149.094 24.2031 148.75 24.2344C148.344 24.2969 147.969 24.3281 147.625 24.3281L146.359 24.4688C145.922 24.5312 145.375 24.5938 144.719 24.6562C144.094 24.6875 143.328 24.75 142.422 24.8438C143.734 23.7812 144.578 22.8594 144.953 22.0781C145.359 21.2656 145.531 20.5938 145.469 20.0625C145.406 19.4688 145.125 18.9531 144.625 18.5156C144.031 18.1719 143.391 18.0469 142.703 18.1406C142.109 18.2031 141.422 18.4688 140.641 18.9375C139.859 19.4062 139.031 20.2812 138.156 21.5625C138.219 23.5625 138.281 25.2188 138.344 26.5312C138.438 27.8438 138.516 28.9062 138.578 29.7188C138.672 30.6562 138.75 31.3906 138.812 31.9219C138.906 32.3906 139.094 32.8906 139.375 33.4219C139.594 33.8594 139.906 34.3438 140.312 34.875C140.719 35.4062 141.25 35.9375 141.906 36.4688C140.531 36.4062 139.406 36.4062 138.531 36.4688C138 36.5 137.531 36.5312 137.125 36.5625C136.688 36.625 136.219 36.6875 135.719 36.75C135.281 36.8125 134.766 36.875 134.172 36.9375C133.609 37.0312 132.984 37.125 132.297 37.2188C132.547 36.875 132.75 36.4688 132.906 36C133.062 35.5625 133.188 35.1406 133.281 34.7344C133.406 34.2656 133.5 33.7812 133.562 33.2812C133.594 32.8438 133.609 32.1875 133.609 31.3125C133.641 30.4375 133.625 29.4531 133.562 28.3594C133.531 27.2344 133.484 26.0781 133.422 24.8906C133.359 23.6719 133.281 22.5312 133.188 21.4688C133.094 20.4062 132.984 19.4844 132.859 18.7031C132.766 17.8906 132.656 17.3281 132.531 17.0156C132.375 16.6406 132.188 16.2656 131.969 15.8906C131.781 15.5469 131.547 15.1875 131.266 14.8125C130.984 14.4062 130.672 13.9844 130.328 13.5469ZM157.281 17.0156C157.438 16.8281 157.531 16.4844 157.562 15.9844C157.625 15.4531 157.75 14.8594 157.938 14.2031C158.156 13.5469 158.516 12.8594 159.016 12.1406C159.516 11.4219 160.328 10.75 161.453 10.125C162.547 9.5 163.609 9.125 164.641 9C165.672 8.875 166.656 8.92188 167.594 9.14062C168.531 9.35938 169.406 9.70312 170.219 10.1719C171.062 10.6406 171.828 11.1562 172.516 11.7188C172.984 12.0938 173.359 12.6406 173.641 13.3594C173.922 14.0469 174.141 14.8281 174.297 15.7031C174.453 16.5781 174.562 17.5 174.625 18.4688C174.719 19.4062 174.781 20.3281 174.812 21.2344C174.844 22.1094 174.859 22.9219 174.859 23.6719C174.891 24.3906 174.953 24.9844 175.047 25.4531C175.172 26.1406 175.391 26.7344 175.703 27.2344C176.016 27.7031 176.359 28.1094 176.734 28.4531C177.109 28.7656 177.484 29.0156 177.859 29.2031C178.234 29.3906 178.562 29.5312 178.844 29.625C179.031 29.7188 179.203 29.7812 179.359 29.8125C179.672 29.9375 179.891 29.9375 180.016 29.8125C179.828 30.25 179.656 30.625 179.5 30.9375C179.344 31.25 179.219 31.5156 179.125 31.7344C179 31.9844 178.891 32.1875 178.797 32.3438C178.703 32.5312 178.594 32.7031 178.469 32.8594C178.375 33.0156 178.25 33.1875 178.094 33.375C177.938 33.5625 177.781 33.7656 177.625 33.9844C177.219 33.8281 176.828 33.6406 176.453 33.4219C176.109 33.2031 175.797 33 175.516 32.8125C175.172 32.5938 174.859 32.375 174.578 32.1562C174.297 31.9375 174.031 31.6875 173.781 31.4062C173.562 31.1562 173.328 30.8906 173.078 30.6094C172.859 30.3281 172.672 30.0156 172.516 29.6719C172.328 30.0781 171.875 30.6562 171.156 31.4062C170.469 32.1562 169.562 32.8438 168.438 33.4688C167.312 34.0625 166 34.4844 164.5 34.7344C163.031 34.9844 161.406 34.8125 159.625 34.2188C158.844 33.9688 158.109 33.6094 157.422 33.1406C156.734 32.6406 156.141 32.0469 155.641 31.3594C155.172 30.6719 154.828 29.8906 154.609 29.0156C154.422 28.1094 154.438 27.1094 154.656 26.0156C154.875 24.9219 155.266 24 155.828 23.25C156.391 22.5 157.062 21.8906 157.844 21.4219C158.625 20.9531 159.5 20.5938 160.469 20.3438C161.438 20.0938 162.438 19.9219 163.469 19.8281C164.281 19.7969 165.094 19.8438 165.906 19.9688C166.594 20.0938 167.312 20.3281 168.062 20.6719C168.812 20.9844 169.453 21.4688 169.984 22.125C169.953 20.4688 169.891 19.1562 169.797 18.1875C169.734 17.1875 169.672 16.4219 169.609 15.8906C169.484 15.2656 169.375 14.8281 169.281 14.5781C169.125 14.3594 168.953 14.1094 168.766 13.8281C168.609 13.5469 168.406 13.2969 168.156 13.0781C167.906 12.8281 167.594 12.625 167.219 12.4688C166.844 12.3125 166.406 12.25 165.906 12.2812C165.375 12.3125 164.953 12.4531 164.641 12.7031C164.328 12.9531 164.078 13.25 163.891 13.5938C163.734 13.9062 163.641 14.25 163.609 14.625C163.578 15 163.594 15.3281 163.656 15.6094C163.719 15.7969 163.812 16 163.938 16.2188C164.062 16.4062 164.234 16.6094 164.453 16.8281C164.672 17.0469 164.969 17.2344 165.344 17.3906C164.625 17.4844 163.984 17.5625 163.422 17.625C162.859 17.6562 162.375 17.7031 161.969 17.7656C161.5 17.8281 161.094 17.875 160.75 17.9062C160.406 17.9375 160 18 159.531 18.0938C159.125 18.1562 158.625 18.2344 158.031 18.3281C157.438 18.4219 156.75 18.5469 155.969 18.7031C156.156 18.4844 156.328 18.2812 156.484 18.0938C156.641 17.875 156.781 17.6875 156.906 17.5312C157.031 17.3438 157.156 17.1719 157.281 17.0156ZM164.312 22.5938C163.75 22.625 163.188 22.7656 162.625 23.0156C162.062 23.2344 161.562 23.5625 161.125 24C160.688 24.4062 160.312 24.8906 160 25.4531C159.719 25.9844 159.578 26.5781 159.578 27.2344C159.578 27.8906 159.734 28.4688 160.047 28.9688C160.391 29.4375 160.828 29.8281 161.359 30.1406C161.922 30.4531 162.516 30.6406 163.141 30.7031C163.797 30.7656 164.438 30.7031 165.062 30.5156C165.656 30.2969 166.219 29.9531 166.75 29.4844C167.281 28.9844 167.734 28.4531 168.109 27.8906C168.484 27.2969 168.75 26.7188 168.906 26.1562C169.062 25.5625 169.078 25.0781 168.953 24.7031C168.703 23.8906 168.141 23.3281 167.266 23.0156C166.391 22.6719 165.406 22.5312 164.312 22.5938ZM180.625 37.3125C180.938 36.8438 181.188 36.4062 181.375 36C181.562 35.5938 181.719 35.25 181.844 34.9688C181.969 34.625 182.062 34.3125 182.125 34.0312C182.156 33.8438 182.172 33.2969 182.172 32.3906C182.172 31.4844 182.141 30.3438 182.078 28.9688C182.047 27.5938 182 26.0469 181.938 24.3281C181.906 22.6094 181.844 20.8594 181.75 19.0781C181.688 17.2969 181.609 15.5625 181.516 13.875C181.453 12.1875 181.391 10.6719 181.328 9.32812C181.266 7.95312 181.203 6.82812 181.141 5.95312C181.078 5.07813 181.031 4.57812 181 4.45312C180.938 4.26562 180.828 4.07812 180.672 3.89062C180.359 3.51562 179.828 3.15625 179.078 2.8125C180.672 2.40625 181.891 2.07813 182.734 1.82812C183.234 1.70313 183.672 1.57812 184.047 1.45312C184.391 1.32813 184.734 1.20312 185.078 1.07812C185.359 0.953125 185.672 0.8125 186.016 0.65625C186.359 0.46875 186.672 0.265625 186.953 0.046875C186.797 0.953125 186.672 1.82812 186.578 2.67188C186.484 3.51562 186.406 4.29687 186.344 5.01562C186.281 5.82813 186.25 6.60938 186.25 7.35938C186.094 8.89062 186 10.5625 185.969 12.375C185.969 14.1562 185.984 15.9688 186.016 17.8125C186.047 19.6562 186.109 21.4531 186.203 23.2031C186.297 24.9531 186.391 26.5469 186.484 27.9844C186.609 29.3906 186.719 30.5938 186.812 31.5938C186.938 32.5625 187.031 33.1875 187.094 33.4688C187.219 33.9375 187.344 34.3906 187.469 34.8281C187.594 35.2031 187.734 35.5938 187.891 36C188.047 36.4375 188.234 36.7812 188.453 37.0312H183.906C183.5 37.0312 183.109 37.0469 182.734 37.0781C182.391 37.1094 182.031 37.1406 181.656 37.1719C181.281 37.2031 180.938 37.25 180.625 37.3125ZM212.406 4.26562C213.969 4.35938 215.281 4.4375 216.344 4.5C217.438 4.53125 218.344 4.5625 219.062 4.59375C219.875 4.625 220.562 4.625 221.125 4.59375C221.688 4.5625 222.453 4.48437 223.422 4.35938C224.234 4.26562 225.312 4.125 226.656 3.9375C228.031 3.71875 229.734 3.4375 231.766 3.09375C231.047 3.8125 230.484 4.46875 230.078 5.0625C229.703 5.625 229.406 6.10938 229.188 6.51562C228.938 7.01562 228.766 7.4375 228.672 7.78125C228.609 8.09375 228.672 8.875 228.859 10.125C229.047 11.375 229.312 12.8594 229.656 14.5781C230 16.2656 230.375 18.0781 230.781 20.0156C231.188 21.9219 231.594 23.7188 232 25.4062C232.406 27.0625 232.766 28.4844 233.078 29.6719C233.422 30.8281 233.672 31.5156 233.828 31.7344C234.297 32.3906 234.594 32.8281 234.719 33.0469C234.844 33.2344 235.062 33.4062 235.375 33.5625C235.5 33.625 235.703 33.7188 235.984 33.8438C236.234 33.9688 236.562 34.125 236.969 34.3125C237.406 34.5 237.953 34.7188 238.609 34.9688C237.391 35.0312 236.344 35.0781 235.469 35.1094C234.594 35.1094 233.875 35.125 233.312 35.1562C232.656 35.1875 232.094 35.2188 231.625 35.25C231.156 35.25 230.594 35.2812 229.938 35.3438C229.375 35.4062 228.641 35.4688 227.734 35.5312C226.859 35.5938 225.828 35.6562 224.641 35.7188C225.266 35.2812 225.766 34.8906 226.141 34.5469C226.547 34.1719 226.859 33.8594 227.078 33.6094C227.328 33.2969 227.5 33.0156 227.594 32.7656C227.656 32.4844 227.703 32.0625 227.734 31.5C227.766 31 227.766 30.3438 227.734 29.5312C227.703 28.6875 227.625 27.5938 227.5 26.25L215.172 27.5156C214.859 28.0469 214.625 28.5156 214.469 28.9219C214.312 29.2969 214.203 29.625 214.141 29.9062C214.047 30.25 214.016 30.5312 214.047 30.75C214.109 31 214.219 31.2969 214.375 31.6406C214.531 31.9531 214.75 32.3281 215.031 32.7656C215.344 33.1719 215.797 33.6562 216.391 34.2188C215.609 34.1875 214.812 34.1719 214 34.1719C213.188 34.1719 212.438 34.1875 211.75 34.2188C210.938 34.25 210.141 34.2812 209.359 34.3125C208.578 34.3438 207.688 34.3906 206.688 34.4531C205.844 34.5156 204.859 34.5938 203.734 34.6875C202.578 34.75 201.344 34.8438 200.031 34.9688C200.844 34.5938 201.531 34.2188 202.094 33.8438C202.656 33.4375 203.125 33.0625 203.5 32.7188C203.938 32.3438 204.312 31.9844 204.625 31.6406C204.844 31.3281 205.281 30.6094 205.938 29.4844C206.594 28.3281 207.328 26.9688 208.141 25.4062C208.984 23.8438 209.859 22.1719 210.766 20.3906C211.703 18.6094 212.547 16.9375 213.297 15.375C214.047 13.7812 214.656 12.4062 215.125 11.25C215.594 10.0938 215.828 9.34375 215.828 9C215.766 8.59375 215.609 8.14062 215.359 7.64062C215.141 7.20312 214.797 6.70312 214.328 6.14062C213.891 5.57812 213.25 4.95312 212.406 4.26562ZM226.938 22.7812C226.75 21.6875 226.578 20.75 226.422 19.9688C226.266 19.1562 226.141 18.4844 226.047 17.9531C225.922 17.3281 225.828 16.7812 225.766 16.3125C225.672 15.875 225.562 15.3125 225.438 14.625C225.312 14.0312 225.156 13.2969 224.969 12.4219C224.812 11.5156 224.609 10.4375 224.359 9.1875C222.578 12.75 221.188 15.5156 220.188 17.4844C219.219 19.4219 218.516 20.8438 218.078 21.75C217.547 22.8125 217.25 23.4375 217.188 23.625L226.938 22.7812ZM236.641 3.70312C237.703 3.82812 238.594 3.92187 239.312 3.98438C240.062 4.01562 240.672 4.0625 241.141 4.125C241.703 4.1875 242.141 4.21875 242.453 4.21875C242.797 4.25 243.312 4.23438 244 4.17188C244.594 4.10937 245.391 4.03125 246.391 3.9375C247.422 3.84375 248.734 3.70312 250.328 3.51562C249.609 4.14063 249.031 4.75 248.594 5.34375C248.188 5.90625 247.875 6.40625 247.656 6.84375C247.375 7.375 247.203 7.875 247.141 8.34375C247.016 9.09375 246.906 10.125 246.812 11.4375C246.75 12.7188 246.688 14.125 246.625 15.6562C246.562 17.1875 246.531 18.7656 246.531 20.3906C246.531 22.0156 246.547 23.5625 246.578 25.0312C246.641 26.4688 246.734 27.75 246.859 28.875C247.016 30 247.203 30.8125 247.422 31.3125C247.734 31.875 248.062 32.4375 248.406 33C248.719 33.4688 249.094 33.9531 249.531 34.4531C249.969 34.9531 250.469 35.3594 251.031 35.6719C249.188 35.5781 247.719 35.5312 246.625 35.5312H244.938C244.438 35.5312 243.797 35.5625 243.016 35.625C242.359 35.6875 241.531 35.75 240.531 35.8125C239.531 35.875 238.328 35.9688 236.922 36.0938C237.641 35.3125 238.203 34.5625 238.609 33.8438C239.016 33.125 239.344 32.5 239.594 31.9688C239.875 31.3438 240.062 30.75 240.156 30.1875C240.281 29.375 240.375 28.375 240.438 27.1875C240.531 25.9688 240.594 24.6719 240.625 23.2969C240.656 21.8906 240.656 20.4688 240.625 19.0312C240.625 17.5625 240.594 16.1562 240.531 14.8125C240.469 13.4688 240.375 12.25 240.25 11.1562C240.156 10.0625 240.031 9.1875 239.875 8.53125C239.781 8.125 239.594 7.67188 239.312 7.17188C239.062 6.73438 238.719 6.23438 238.281 5.67188C237.875 5.07813 237.328 4.42188 236.641 3.70312Z" fill="white"/>
</svg>
